PathFileType	4	(X/Y/Z)	C:/Users/beibeiliu/ov580/test_trc/User1\sequence.17_training_dense_left.trc
DataRate	CameraRate	NumFrames	NumMarkers	Units	OrigDataRate	OrigDataStartFrame	OrigNumFrames
120	120	12	19	mm	120	110	292
Frame#	Time	ThumbCMC			ThumbMCP			ThumbIP			ThumbTip			IndexMCP			IndexPIP			IndexTip			MiddleMCP			MiddlePIP			MiddleTip			RingMCP			RingPIP			RingTip			PinkyMCP			PinkyPIP			PinkyTip			BackHand1			BackHand2			BackHand3	
		X0	Y0	Z0	X1	Y1	Z1	X2	Y2	Z2	X3	Y3	Z3	X4	Y4	Z4	X5	Y5	Z5	X6	Y6	Z6	X7	Y7	Z7	X8	Y8	Z8	X9	Y9	Z9	X10	Y10	Z10	X11	Y11	Z11	X12	Y12	Z12	X13	Y13	Z13	X14	Y14	Z14	X15	Y15	Z15	X16	Y16	Z16	X17	Y17	Z17	X18	Y18	Z18	
109	0.908333	-176.591	24.3845	52.9898	-151.496	11.8526	42.0546	-132.767	8.45909	26.6765	-110.384	6.32004	20.4201	-181.128	45.2751	-31.3488	-180.671	46.6011	-52.4102	-182.679	48.1693	-78.2925	-201.173	18.4624	-38.3118	-193.74	-18.3286	-35.5243	-195.496	-18.1206	1.58383	-221.458	2.19695	-31.0729	-213.007	-26.6151	-13.7099	-212.879	-20.3183	15.8579	-243.143	-2.43619	-21.2474	-225.649	-20.607	-5.69572	-219.512	-9.1005	23.4546	-236.503	43.954	17.9912	-240.669	46.0286	53.8481	-203.193	48.9977	40.8726	
110	0.916667	-176.488	26.6154	56.5776	-150.316	18.0516	39.0629	-132.093	17.4356	23.785	-113.248	16.9822	16.5044	-183.849	45.9872	-31.8961	-187.334	46.5222	-58.1424	-188.934	48.6196	-79.9832	-202.639	15.6487	-41.1815	-197.56	-18.7437	-35.4075	-194.143	-15.3798	5.6034	-222.401	2.67517	-31.1877	-214.242	-26.4388	-16.2455	-213.447	-20.313	17.14	-242.882	-1.07183	-20.371	-228.438	-21.4136	-6.51063	-219.775	-9.24537	20.0167	-239.366	43.2935	16.9126	-243.698	44.6106	53.1183	-203.962	50.0979	39.3271	
111	0.925	-178.406	28.4215	53.4785	-156.433	19.4596	40.8388	-135.031	22.7457	25.2759	-114.523	23.3238	20.5409	-186.542	45.7811	-33.8538	-190.947	46.7202	-57.3707	-195.832	47.2311	-85.4512	-204.405	15.6131	-43.1168	-200.888	-17.7831	-37.5049	-197.718	-15.9692	3.53878	-227.114	0.606794	-30.4862	-217.749	-27.8924	-16.0221	-213.936	-20.7302	16.3172	-249.335	-0.504291	-19.6249	-232.397	-24.869	-7.99989	-220.817	-10.8719	24.9743	-237.762	43.4369	11.8831	-242.15	44.4927	51.7079	-208.856	48.6474	38.0017	
112	0.933333	-177.906	29.7249	54.8225	-155.441	22.9295	37.9691	-136.424	25.9501	23.3106	-114.52	27.7121	19.1074	-188.81	44.9724	-34.6485	-191.164	46.0162	-61.9223	-199.677	46.0636	-88.977	-212.664	15.6985	-41.0828	-200.388	-17.8021	-39.6278	-197.179	-19.0176	-0.129028	-228.569	-1.42585	-30.9888	-218.664	-28.1616	-16.2472	-212.948	-20.9979	15.7807	-248.039	-4.68664	-19.6105	-233.071	-22.7426	-8.66879	-221.705	-10.3199	21.7125	-242.351	42.449	15.4217	-243.246	44.5871	49.1377	-208.954	50.5423	34.7127	
113	0.941667	-177.91	30.759	50.2511	-158.38	23.651	38.6171	-135.947	27.2162	23.1234	-115.634	30.1067	17.9827	-192.336	42.7142	-35.5858	-197.25	43.6726	-64.1442	-204.033	43.8833	-89.2937	-215.128	9.70508	-43.9477	-203.175	-19.7632	-38.9743	-200.394	-16.5444	4.5365	-229.894	-2.82062	-31.5187	-219.185	-27.7957	-16.1131	-215.73	-20.4272	19.5347	-252.346	-3.04067	-18.2936	-235.552	-26.3388	-4.05323	-223.961	-12.0502	24.6903	-239.872	43.7495	12.2491	-247.849	45.2275	49.9657	-209.193	49.3552	36.0776	
114	0.95	-183.074	29.7684	52.118	-158.388	23.9951	32.7676	-137.463	27.8508	18.5781	-119.594	27.8316	14.8177	-194.934	42.4353	-37.602	-199.684	40.56	-64.1442	-210.332	39.7212	-85.4798	-213.231	11.8811	-42.5469	-206.44	-23.4278	-33.8784	-199.334	-21.7721	0.200014	-234.472	-5.51739	-31.3501	-222.631	-28.858	-16.44	-216.087	-23.3269	16.5475	-253.365	-1.32317	-18.0071	-236.332	-24.4886	-7.22723	-225.433	-15.1257	22.5069	-244.759	41.3394	15.7272	-249.212	44.338	46.5527	-213.598	50.0703	34.8209	
115	0.958333	-183.859	29.9527	47.5654	-162.194	21.6879	35.1322	-136.62	26.4058	19.261	-119.516	27.515	14.6306	-196.235	41.5627	-37.8053	-201.806	40.1857	-65.6324	-208.725	39.0311	-86.2889	-218.639	9.49341	-43.4883	-210.15	-24.6719	-33.4056	-201.338	-21.2475	-0.105918	-234.119	-0.609116	-30.6348	-221.526	-31.2637	-12.4484	-216.353	-21.7038	16.945	-254.906	-6.18774	-19.3991	-240.577	-27.1506	-5.43332	-224.268	-12.4561	21.2872	-246.066	41.4509	12.3353	-247.141	45.796	47.5385	-209.325	49.2663	32.2217	
116	0.966667	-184.28	29.6375	49.5759	-159.429	22.2717	30.8778	-138.992	23.7105	20.9157	-119.674	25.2497	11.4059	-199.378	38.8011	-38.0945	-205.743	37.6053	-61.9269	-212.677	37.4607	-88.2742	-220.47	10.3069	-43.1418	-208.53	-24.6643	-36.7712	-205.172	-20.5933	1.83368	-237.758	-2.4053	-30.6562	-223.086	-31.3293	-13.9895	-219.883	-24.032	17.4361	-254.272	-6.04359	-19.2397	-242.261	-28.4122	-6.45726	-226.688	-16.8563	22.4185	-243.969	43.9236	11.3488	-251.288	46.7949	46.8322	-211.68	50.546	33.5296	
117	0.975	-182.325	27.9238	48.8374	-156.632	20.659	32.7578	-139.562	21.1276	20.298	-120.327	21.4413	13.1397	-201.518	37.5012	-41.2963	-204.374	36.235	-65.7761	-214.548	35.8007	-89.714	-220.9	9.22736	-43.5885	-213.559	-24.9448	-37.4089	-206.828	-22.7674	-0.0268813	-234.806	-3.72669	-31.2478	-224.734	-31.0081	-18.3317	-219.711	-24.2459	16.79	-258.786	-5.21242	-18.1401	-242.117	-28.5435	-5.46294	-224.968	-16.058	21.5984	-245.064	41.7909	8.99529	-246.038	44.383	49.8494	-214.78	48.199	29.8324	
118	0.983333	-183.969	26.8414	45.4369	-157.897	18.5839	30.1641	-139.654	18.977	16.0473	-116.576	19.2274	15.9938	-198.632	38.0776	-41.1958	-204.576	36.2606	-66.6102	-215.132	34.8107	-88.0943	-218.106	9.09755	-43.8122	-209.814	-24.4072	-39.4303	-204.27	-21.9693	0.734061	-238.078	-7.91419	-31.8037	-227.945	-33.1555	-16.6536	-220.06	-24.9684	18.7078	-257.883	-5.4734	-18.3728	-243.1	-29.0507	-7.27955	-224.329	-16.2624	19.7975	-247.151	42.4299	11.6857	-248.253	45.0343	48.9467	-210.353	47.1775	33.2423	
119	0.991667	-183.401	25.9995	44.5715	-156.74	17.7561	31.4243	-136.303	17.7219	16.9278	-116.497	15.9029	12.6052	-196.785	36.5908	-38.5726	-203.546	34.9383	-63.5632	-214.823	34.124	-89.2958	-220.349	6.68196	-45.1064	-210.418	-27.8988	-35.7138	-202.843	-21.6274	3.47241	-237.206	-6.55499	-32.6339	-224.235	-33.2242	-16.1009	-220.721	-26.7514	16.3872	-256.232	-6.32109	-19.1058	-242.331	-28.8038	-5.56723	-224.834	-13.8502	19.4304	-245.987	42.9151	8.14142	-248.863	45.0378	46.0393	-213.377	48.124	32.6954	
120	1	-179.951	26.9872	47.4138	-161.283	15.2195	32.4357	-138.666	14.3541	16.3482	-120.216	12.7368	13.2829	-199.681	36.5461	-42.2776	-205.496	33.2497	-63.1346	-213.133	33.4566	-87.7528	-220.428	9.26821	-42.7333	-209.871	-26.36	-36.1517	-204.557	-22.8837	0.302721	-235.663	-1.14766	-31.6888	-225.847	-31.5111	-17.6393	-220.566	-24.2078	18.7853	-253.208	-6.51899	-19.7036	-238.023	-26.5158	-5.01725	-225.436	-18.0429	18.5556	-245.97	42.9459	12.4583	-247.629	44.9817	47.3053	-207.673	48.0167	28.6312	
